mtllib first.mtl
# vertices
v -320 -16 -128
v -320 -16 128
v -320 0 128
v -320 0 -128
v 320 0 128
v 320 -16 128
v 320 -16 -128
v 320 0 -128
v 304 0 -128
v 304 0 128
v 304 144 128
v 304 144 -128
v 320 144 128
v 320 0 128
v 320 0 -128
v 320 144 -128
v -304 0 112
v -304 0 128
v -304 144 128
v -304 144 112
v 304 144 128
v 304 0 128
v 304 0 112
v 304 144 112
v -320 0 -128
v -320 0 128
v -320 144 128
v -320 144 -128
v -304 144 128
v -304 0 128
v -304 0 -128
v -304 144 -128
v -304 0 -128
v -304 0 -112
v -304 144 -112
v -304 144 -128
v 304 144 -112
v 304 0 -112
v 304 0 -128
v 304 144 -128
v -320 144 -128
v -320 144 128
v -320 160 128
v -320 160 -128
v 320 160 128
v 320 144 128
v 320 144 -128
v 320 160 -128

# texture coordinates
vt -0.6 -0.083333336
vt 0.2 -0.083333336
vt 0.2 -0.16666667
vt -0.6 -0.16666667
vt 1 -0.16666667
vt -1 -0.16666667
vt -1 -0.083333336
vt 1 -0.083333336
vt -1 -0.33333334
vt 1 -0.33333334
vt 1 1
vt -1 1
vt 0.6 -0.16666667
vt -0.2 -0.16666667
vt -0.2 -0.083333336
vt 0.6 -0.083333336
vt -2 -0
vt 2 -0
vt 2 2.25
vt -2 2.25
vt -320 144
vt -304 144
vt -304 -0
vt -320 -0
vt -320 -128
vt -304 -128
vt -304 128
vt -320 128
vt 320 128
vt 304 128
vt 304 -128
vt 320 -128
vt 320 -0
vt 304 -0
vt 304 144
vt 320 144
vt 128 144
vt -128 144
vt -128 -0
vt 128 -0
vt 112 -0
vt 112 144
vt 304 -112
vt -304 -112
vt -4.75 -0
vt 4.75 -0
vt 4.75 2.25
vt -4.75 2.25
vt -112 144
vt -112 -0
vt 5 2.25
vt 5 -0
vt 4.75 -2
vt 5 -2
vt 5 2
vt 4.75 2
vt -4.75 2
vt -5 2
vt -5 -2
vt -4.75 -2
vt -5 -0
vt -5 2.25
vt -304 112
vt 304 112
vt -0.75 -0.125
vt 0.25 -0.125
vt 0.25 -0.25
vt -0.75 -0.25
vt 1.25 -0.25
vt -1.25 -0.25
vt -1.25 -0.125
vt 1.25 -0.125
vt -1.25 -2
vt 1.25 -2
vt 1.25 -0
vt -1.25 -0
vt 0.75 -0.25
vt -0.25 -0.25
vt -0.25 -0.125
vt 0.75 -0.125

# normals
vn -1 0 0
vn 0 0 1
vn 0 -1 -0
vn -0 1 -0
vn 0 -0 -1
vn 1 0 0

o entity0_brush0
usemtl lgmetal
f  1/1/1  2/2/1  3/3/1  4/4/1
usemtl lgmetal
f  5/5/2  3/6/2  2/7/2  6/8/2
usemtl lgmetal
f  6/9/3  2/10/3  1/11/3  7/12/3
usemtl lgmetal
f  8/11/4  4/12/4  3/9/4  5/10/4
usemtl lgmetal
f  7/7/5  1/8/5  4/5/5  8/6/5
usemtl lgmetal
f  8/13/6  5/14/6  6/15/6  7/16/6

o entity0_brush1
usemtl city2_6
f  9/17/1  10/18/1  11/19/1  12/20/1
usemtl __TB_empty
f  13/21/2  11/22/2  10/23/2  14/24/2
usemtl __TB_empty
f  14/25/3  10/26/3  9/27/3  15/28/3
usemtl __TB_empty
f  16/29/4  12/30/4  11/31/4  13/32/4
usemtl __TB_empty
f  15/33/5  9/34/5  12/35/5  16/36/5
usemtl __TB_empty
f  16/37/6  13/38/6  14/39/6  15/40/6

o entity0_brush2
usemtl __TB_empty
f  17/41/1  18/40/1  19/37/1  20/42/1
usemtl __TB_empty
f  21/35/2  19/22/2  18/23/2  22/34/2
usemtl __TB_empty
f  22/26/3  18/31/3  17/43/3  23/44/3
usemtl __TB_empty
f  24/43/4  20/44/4  19/26/4  21/31/4
usemtl city2_6
f  23/45/5  17/46/5  20/47/5  24/48/5
usemtl __TB_empty
f  24/49/6  21/38/6  22/39/6  23/50/6

o entity0_brush3
usemtl twall5_3
f  25/17/1  26/18/1  27/19/1  28/20/1
usemtl twall5_3
f  29/47/2  27/51/2  26/52/2  30/46/2
usemtl twall5_3
f  30/53/3  26/54/3  25/55/3  31/56/3
usemtl twall5_3
f  32/57/4  28/58/4  27/59/4  29/60/4
usemtl twall5_3
f  31/45/5  25/61/5  28/62/5  32/48/5
usemtl twall5_3
f  32/19/6  29/20/6  30/17/6  31/18/6

o entity0_brush4
usemtl __TB_empty
f  33/39/1  34/50/1  35/49/1  36/38/1
usemtl city2_6
f  37/47/2  35/48/2  34/45/2  38/46/2
usemtl __TB_empty
f  38/63/3  34/64/3  33/30/3  39/27/3
usemtl __TB_empty
f  40/30/4  36/27/4  35/63/4  37/64/4
usemtl __TB_empty
f  39/23/5  33/34/5  36/35/5  40/22/5
usemtl __TB_empty
f  40/37/6  37/42/6  38/41/6  39/40/6

o entity0_brush5
usemtl sky1
f  41/65/1  42/66/1  43/67/1  44/68/1
usemtl sky1
f  45/69/2  43/70/2  42/71/2  46/72/2
usemtl sky1
f  46/73/3  42/74/3  41/75/3  47/76/3
usemtl sky1
f  48/75/4  44/76/4  43/73/4  45/74/4
usemtl sky1
f  47/71/5  41/72/5  44/69/5  48/70/5
usemtl sky1
f  48/77/6  45/78/6  46/79/6  47/80/6

